inDegrees=no
num_controls=7
num_derivatives=13
num_iterations=156
num_multipliers=7
num_parameters=0
num_slacks=7
num_states=26
objective=6.120859
objective_accelerations=0.638602
objective_balance=0.046091
objective_effort=0.574850
objective_height=4.744169
objective_ligament=0.117147
solver_duration=1619.373718
status=Solve_Succeeded
success=true
DataType=double
version=3
OpenSimVersion=4.4-2022-07-23-0e9fedc
endheader
time	/jointset/ground_pelvis/pelvis_tilt/value	/jointset/ground_pelvis/pelvis_tx/value	/jointset/ground_pelvis/pelvis_ty/value	/jointset/hip_l/hip_flexion_l/value	/jointset/hip_l/hip_adduction_l/value	/jointset/hip_l/hip_rotation_l/value	/jointset/back/lumbar_extension/value	/jointset/patellofemoral_l/patellar_flexion_l/value	/jointset/knee_l/knee_flexion_l/value	/jointset/knee_l/knee_adduction_l/value	/jointset/knee_l/knee_rotation_l/value	/jointset/ankle_l/ankle_angle_l/value	/jointset/subtalar_l/subtalar_angle_l/value	/jointset/ground_pelvis/pelvis_tilt/speed	/jointset/ground_pelvis/pelvis_tx/speed	/jointset/ground_pelvis/pelvis_ty/speed	/jointset/hip_l/hip_flexion_l/speed	/jointset/hip_l/hip_adduction_l/speed	/jointset/hip_l/hip_rotation_l/speed	/jointset/back/lumbar_extension/speed	/jointset/patellofemoral_l/patellar_flexion_l/speed	/jointset/knee_l/knee_flexion_l/speed	/jointset/knee_l/knee_adduction_l/speed	/jointset/knee_l/knee_rotation_l/speed	/jointset/ankle_l/ankle_angle_l/speed	/jointset/subtalar_l/subtalar_angle_l/speed	/forceset/tau_hip_flexion_l	/forceset/tau_hip_adduction_l	/forceset/tau_hip_rotation_l	/forceset/tau_knee_flexion_l	/forceset/tau_ankle_angle_l	/forceset/tau_subtalar_angle_l	/forceset/tau_lumbar_extension	lambda_cid13_p0	lambda_cid13_p1	lambda_cid13_p2	lambda_cid13_p3	lambda_cid13_p4	lambda_cid13_p5	lambda_cid14_p0	/jointset/ground_pelvis/pelvis_tilt/accel	/jointset/ground_pelvis/pelvis_tx/accel	/jointset/ground_pelvis/pelvis_ty/accel	/jointset/hip_l/hip_flexion_l/accel	/jointset/hip_l/hip_adduction_l/accel	/jointset/hip_l/hip_rotation_l/accel	/jointset/back/lumbar_extension/accel	/jointset/patellofemoral_l/patellar_flexion_l/accel	/jointset/knee_l/knee_flexion_l/accel	/jointset/knee_l/knee_adduction_l/accel	/jointset/knee_l/knee_rotation_l/accel	/jointset/ankle_l/ankle_angle_l/accel	/jointset/subtalar_l/subtalar_angle_l/accel	gamma_cid13_p0	gamma_cid13_p1	gamma_cid13_p2	gamma_cid13_p3	gamma_cid13_p4	gamma_cid13_p5	gamma_cid14_p0
0.5	-0.1626259873182208	-0.07164898947884016	0.7869285759974919	1.060473198228492	-0.3263538155282626	-0.07846434822109589	-0.8025643157499918	0.9305659712219073	0.9305659712218093	-0.09514872903116753	-0.1743608576170318	0.09623093130120518	-0.00174434022964417	-0.305144338751319	-0.2125999884565287	-0.4836308535225837	1.935490927261438	-0.02172160093491997	0.5636243706677961	-0.8275779934590372	1.803415891904238	1.803415891904264	0.1638051796939652	0.0006010624226589843	0.2905276759388124	0.06897049572029819	-0.3196548120735689	0.01538842774483636	-0.00516007111566034	-0.2284892606706304	0.1182575261797062	0.05064181935249952	0.3553769188745466	-6.277587622313515	-21.89052669085951	4.173249654805979	-12.93989383594437	-703.1471401876822	-74.12253196290504	-9.359097516828632	0.4474906360450007	0.828196208342947	-0.1937279662677714	-1.732559644178802	0.3496199114091418	-0.5019304527059757	2.090275042668018	-1.449677264443961	-1.449677264443936	-0.2383815051896635	-0.01020209004770974	-0.233732231435121	0.3254706498105459	-2.915798744599074e-07	-1.487875254853488e-07	1.674332757917195e-06	1.723590486821187e-07	-3.072120097031074e-07	2.015508101072966e-07	-2.507852924989621e-07
0.51	-0.1656545080671679	-0.073733543687205	0.7820836550122227	1.079738567038629	-0.3265545148427448	-0.07285219925694535	-0.8107349202446247	0.9485248799824202	0.9485248799824892	-0.09352547854305479	-0.1743553165587608	0.09912357717220342	-0.001039731541813	-0.3005147011253645	-0.2043098329843802	-0.4852441831866661	1.917324110129711	-0.01842461416148423	0.5587391125121353	-0.8064659606331098	1.78811051677481	1.788110516774825	0.1608431873988631	0.0005046945169181862	0.2879427824015118	0.07192829172858632	-0.3274436012692873	0.01538038776124115	-0.005314781841118858	-0.2316850609050998	0.1184189654132884	0.0506823370893333	0.3625718152538185	-6.540192239909823	-21.78936930080878	4.073996176581867	-12.85230777092979	-708.4264947401347	-73.85995838576208	-8.622499760078981	0.4774377276252783	0.8296128082919326	-0.1288204024593948	-1.897589306676658	0.3185734551480403	-0.4919958668575772	2.133209127351327	-1.609220153095176	-1.609220153096874	-0.3253652628611032	-0.00938618114718979	-0.279670259818078	0.2773161096098802	-2.805562908568534e-07	-1.436720646011771e-07	1.626577858462538e-06	1.660482141475267e-07	-2.901859963982104e-07	2.317532276920969e-07	-2.45230259121197e-07
0.52	-0.1686353849594814	-0.07573515882252017	0.7772258637431158	1.09881449836566	-0.3267224772105242	-0.06729093734837277	-0.818692096066034	0.9663230844884375	0.9663230844887042	-0.09193189941204991	-0.1743507455876468	0.1019886136388378	-0.0003062684872448914	-0.2956155674292508	-0.1960121738465976	-0.4862049102899679	1.897603430637694	-0.01517421159451895	0.5534469595619996	-0.7848922588153484	1.771275041009268	1.771275041009273	0.1578709082561096	0.0004070449987736851	0.2850057950665953	0.07474136906774673	-0.3352323904650333	0.01537234777752195	-0.005469492565859321	-0.2348808611395891	0.1185804046468335	0.05072285482600648	0.3697667116330965	-6.805900407754341	-21.68838378196466	3.975588569354196	-12.80454036315322	-713.7840691565432	-73.65546085347376	-7.888619345734424	0.5013898500765946	0.8296969414699575	-0.06320745411159655	-2.043332116237072	0.3403030701151388	-0.5833094116009112	2.182608841034707	-1.755697391666803	-1.755697391666788	-0.2404388747199866	-0.01045841252843216	-0.3041509909580195	0.2965269159850827	-2.743160334033689e-07	-1.950468807715473e-07	1.556538169720628e-06	1.524447306732798e-07	-2.805829966887381e-07	2.541992390211794e-07	-2.457224183706476e-07
0.53	-0.1715659880319293	-0.07765382898467656	0.7723617421717067	1.117685601213591	-0.3268582239292726	-0.06178481763092564	-0.8264313891369448	0.983945427025618	0.9839454270256431	-0.09036796945795644	-0.1743473952747466	0.1048225806114089	0.0004545533042820166	-0.2904648237846457	-0.1877269560110009	-0.4865090598231901	1.876369521966498	-0.01198505720324199	0.5477157056527783	-0.7629058199513931	1.752950924310084	1.752950924310089	0.1549125298120761	0.0002629847097769334	0.2817362966328661	0.07739800563575031	-0.3426923700101077	0.01518353903711523	-0.00557615850224449	-0.2381906873796705	0.118765038449811	0.05062529639816279	0.376621976922287	-7.062437084633199	-21.52623163954778	3.864222837451208	-12.67196865920966	-718.9824507585762	-73.3814606030065	-7.176638120784012	0.5279226043561931	0.8271986510382542	0.002477814675745585	-2.200598223676035	0.30655194310918	-0.5774484085770198	2.215741721061622	-1.907100930070142	-1.907100930070479	-0.3239468752566899	-0.01607310458081809	-0.3460451787051935	0.2463421863325565	-2.6299826446826e-07	-1.957426347445851e-07	1.501447940821043e-06	1.452057115102642e-07	-2.651636622982922e-07	2.789267552642234e-07	-2.397897218969761e-07
0.54	-0.1744438824713639	-0.07948979407919041	0.7674978784084856	1.136336929378601	-0.3269624130402089	-0.05633789345822676	-0.8339490017568137	1.001377261971583	1.001377261971393	-0.08883370519742963	-0.1743454242182657	0.107622313417815	0.001241163493313593	-0.285073840831919	-0.1794711603180844	-0.4861533486522521	1.853648494050686	-0.008862690032919228	0.5416078506237685	-0.7405561686080248	1.733173522769864	1.733173522769868	0.1519377695275504	0.0001311937209509723	0.2781589618341498	0.07989904856873088	-0.3501523495552153	0.01499473029658023	-0.005682824437845931	-0.2415005136197668	0.1189496722527529	0.05052773797015231	0.3834772422114769	-7.321516080029408	-21.36764603355076	3.758009276255315	-12.58699471555069	-724.2469710307394	-73.16878354976697	-6.500634768654216	0.5494377117006646	0.8238125129340719	0.06876468672050529	-2.340755965160173	0.326945625924384	-0.6586296355585548	2.255251336917195	-2.04635435987408	-2.046354359874035	-0.243715242818475	-0.008004552494284538	-0.3657182639552129	0.2654081889805391	-2.46062823255609e-07	-1.403679369248291e-07	1.462897539832113e-06	1.450082273298875e-07	-2.433092342182583e-07	3.061784897099482e-07	-2.267486744104884e-07
0.55	-0.177266733255216	-0.08124342073719189	0.7626408658136155	1.154753814556365	-0.3270356481129734	-0.05095384978985942	-0.8412414107650669	1.018604235712583	1.018604235712511	-0.08732914376329386	-0.1743446227895209	0.1103848297221323	0.002052098942213684	-0.2794589221846841	-0.1712658601183388	-0.485138558944576	1.829489761751533	-0.005799403747576682	0.5351383498880516	-0.7178800335406915	1.711990152021172	1.711990152021192	0.148970760414894	2.486079167336388e-05	0.2742981021478525	0.08225849078542678	-0.357347633396124	0.01472104789463369	-0.005743284483469489	-0.2447716976244149	0.1189381799518763	0.05028186062083888	0.3900200480832698	-7.64117997797606	-21.13266681097491	3.638049533662196	-12.35130312809595	-729.3204525033806	-72.84767928571667	-5.861401236140691	0.5731035255185465	0.8171644285458673	0.1343815417150925	-2.489280372931692	0.2935747463976607	-0.6506863936839663	2.28063451664717	-2.188945516382263	-2.188945516380016	-0.3237710157821175	-0.01228644287327079	-0.4031944210435874	0.2166283533000369	-2.281524425902332e-07	-8.594711127621478e-08	1.418143541607245e-06	1.440403274608116e-07	-2.212024485757956e-07	3.290827997751028e-07	-2.127429469602113e-07
